<mxfile host="app.diagrams.net" modified="2023-05-28T03:13:25.027Z" agent="Mozilla/5.0 (Windows NT 10.0; Win64; x64) AppleWebKit/537.36 (KHTML, like Gecko) Chrome/113.0.0.0 Safari/537.36" etag="qbJUr7pp0k6KQ5u-0d5-" version="21.3.4" type="github">
  <diagram name="Page-1" id="r5-5mrkH5DWfqQ573Fb9">
    <mxGraphModel dx="713" dy="353" grid="1" gridSize="10" guides="1" tooltips="1" connect="1" arrows="1" fold="1" page="1" pageScale="1" pageWidth="827" pageHeight="1169" math="0" shadow="0">
      <root>
        <mxCell id="0" />
        <mxCell id="1" parent="0" />
        <mxCell id="1K2lFntmDClPy83llf3J-1" value="&lt;font style=&quot;font-size: 18px;&quot;&gt;图书出纳系统的碎片DFD&lt;/font&gt;" style="text;html=1;align=center;verticalAlign=middle;resizable=0;points=[];autosize=1;strokeColor=none;fillColor=none;" vertex="1" parent="1">
          <mxGeometry x="60" y="53" width="220" height="40" as="geometry" />
        </mxCell>
        <mxCell id="1K2lFntmDClPy83llf3J-2" value="&lt;h5 style=&quot;language:zh-CN;margin-top:0pt;margin-bottom:0pt;text-align:left;&lt;br/&gt;direction:ltr;unicode-bidi:embed;vertical-align:baseline;mso-line-break-override:&lt;br/&gt;none;punctuation-wrap:hanging&quot;&gt;&lt;/h5&gt;&lt;h4&gt;&lt;div style=&quot;text-align: left;&quot;&gt;&lt;span style=&quot;font-size: 18px; background-color: initial; font-weight: normal;&quot;&gt;一个片段&lt;span style=&quot;font-family: Arial;&quot;&gt;DFD&lt;/span&gt;&lt;/span&gt;&lt;span style=&quot;font-size: 18px; background-color: initial; font-family: 宋体;&quot;&gt;模型的创建基于事件列表中的一个事件，一般说来事件列表&lt;/span&gt;&lt;/div&gt;&lt;font style=&quot;font-size: 18px;&quot;&gt;&lt;span style=&quot;font-family: 宋体; font-weight: bold;&quot;&gt;&lt;div style=&quot;text-align: left;&quot;&gt;&lt;span style=&quot;background-color: initial;&quot;&gt;中有多少件事件就应该形成多少个相应的片段&lt;/span&gt;&lt;span style=&quot;background-color: initial; font-family: Arial;&quot;&gt;DFD&lt;/span&gt;&lt;span style=&quot;background-color: initial;&quot;&gt;。&lt;/span&gt;&lt;/div&gt;&lt;/span&gt;&lt;/font&gt;&lt;/h4&gt;" style="text;html=1;align=center;verticalAlign=middle;resizable=0;points=[];autosize=1;strokeColor=none;fillColor=none;" vertex="1" parent="1">
          <mxGeometry x="60" y="88" width="610" height="90" as="geometry" />
        </mxCell>
        <mxCell id="1K2lFntmDClPy83llf3J-3" value="读者查询馆藏书号" style="rounded=1;whiteSpace=wrap;html=1;" vertex="1" parent="1">
          <mxGeometry x="240" y="220" width="120" height="60" as="geometry" />
        </mxCell>
        <mxCell id="1K2lFntmDClPy83llf3J-4" value="" style="endArrow=none;html=1;rounded=0;exitX=-0.012;exitY=0.337;exitDx=0;exitDy=0;exitPerimeter=0;entryX=1.008;entryY=0.346;entryDx=0;entryDy=0;entryPerimeter=0;" edge="1" parent="1" source="1K2lFntmDClPy83llf3J-3" target="1K2lFntmDClPy83llf3J-3">
          <mxGeometry width="50" height="50" relative="1" as="geometry">
            <mxPoint x="330" y="320" as="sourcePoint" />
            <mxPoint x="380" y="270" as="targetPoint" />
          </mxGeometry>
        </mxCell>
        <mxCell id="1K2lFntmDClPy83llf3J-5" value="1" style="text;html=1;align=center;verticalAlign=middle;resizable=0;points=[];autosize=1;strokeColor=none;fillColor=none;" vertex="1" parent="1">
          <mxGeometry x="285" y="216" width="30" height="30" as="geometry" />
        </mxCell>
        <mxCell id="1K2lFntmDClPy83llf3J-8" value="读者" style="html=1;dashed=0;whiteSpace=wrap;" vertex="1" parent="1">
          <mxGeometry x="100" y="230" width="50" height="40" as="geometry" />
        </mxCell>
        <mxCell id="1K2lFntmDClPy83llf3J-9" value="" style="endArrow=classic;html=1;rounded=0;exitX=1;exitY=0.25;exitDx=0;exitDy=0;entryX=-0.015;entryY=0.329;entryDx=0;entryDy=0;entryPerimeter=0;" edge="1" parent="1" source="1K2lFntmDClPy83llf3J-8" target="1K2lFntmDClPy83llf3J-3">
          <mxGeometry width="50" height="50" relative="1" as="geometry">
            <mxPoint x="300" y="260" as="sourcePoint" />
            <mxPoint x="350" y="210" as="targetPoint" />
          </mxGeometry>
        </mxCell>
        <mxCell id="1K2lFntmDClPy83llf3J-10" value="馆藏书号查询" style="text;html=1;align=center;verticalAlign=middle;resizable=0;points=[];autosize=1;strokeColor=none;fillColor=none;" vertex="1" parent="1">
          <mxGeometry x="140" y="216" width="100" height="30" as="geometry" />
        </mxCell>
        <mxCell id="1K2lFntmDClPy83llf3J-11" value="" style="endArrow=classic;html=1;rounded=0;entryX=1.005;entryY=0.625;entryDx=0;entryDy=0;entryPerimeter=0;" edge="1" parent="1">
          <mxGeometry width="50" height="50" relative="1" as="geometry">
            <mxPoint x="239" y="257" as="sourcePoint" />
            <mxPoint x="150.25" y="257" as="targetPoint" />
          </mxGeometry>
        </mxCell>
        <mxCell id="1K2lFntmDClPy83llf3J-12" value="图书信息" style="text;html=1;align=center;verticalAlign=middle;resizable=0;points=[];autosize=1;strokeColor=none;fillColor=none;" vertex="1" parent="1">
          <mxGeometry x="158" y="250" width="70" height="30" as="geometry" />
        </mxCell>
        <mxCell id="1K2lFntmDClPy83llf3J-13" value="" style="html=1;dashed=0;whiteSpace=wrap;shape=mxgraph.dfd.dataStoreID;align=left;spacingLeft=3;points=[[0,0],[0.5,0],[1,0],[0,0.5],[1,0.5],[0,1],[0.5,1],[1,1]];" vertex="1" parent="1">
          <mxGeometry x="430" y="230" width="100" height="30" as="geometry" />
        </mxCell>
        <mxCell id="1K2lFntmDClPy83llf3J-14" value="图书" style="text;html=1;align=center;verticalAlign=middle;resizable=0;points=[];autosize=1;strokeColor=none;fillColor=none;" vertex="1" parent="1">
          <mxGeometry x="455" y="230" width="50" height="30" as="geometry" />
        </mxCell>
        <mxCell id="1K2lFntmDClPy83llf3J-16" value="" style="endArrow=classic;html=1;rounded=0;exitX=0;exitY=0.5;exitDx=0;exitDy=0;entryX=1.008;entryY=0.431;entryDx=0;entryDy=0;entryPerimeter=0;" edge="1" parent="1" source="1K2lFntmDClPy83llf3J-13" target="1K2lFntmDClPy83llf3J-3">
          <mxGeometry width="50" height="50" relative="1" as="geometry">
            <mxPoint x="300" y="260" as="sourcePoint" />
            <mxPoint x="350" y="210" as="targetPoint" />
          </mxGeometry>
        </mxCell>
        <mxCell id="1K2lFntmDClPy83llf3J-17" value="读者借书" style="rounded=1;whiteSpace=wrap;html=1;" vertex="1" parent="1">
          <mxGeometry x="240" y="344" width="120" height="60" as="geometry" />
        </mxCell>
        <mxCell id="1K2lFntmDClPy83llf3J-18" value="" style="endArrow=none;html=1;rounded=0;exitX=-0.012;exitY=0.337;exitDx=0;exitDy=0;exitPerimeter=0;entryX=1.008;entryY=0.346;entryDx=0;entryDy=0;entryPerimeter=0;" edge="1" parent="1" source="1K2lFntmDClPy83llf3J-17" target="1K2lFntmDClPy83llf3J-17">
          <mxGeometry width="50" height="50" relative="1" as="geometry">
            <mxPoint x="330" y="444" as="sourcePoint" />
            <mxPoint x="380" y="394" as="targetPoint" />
          </mxGeometry>
        </mxCell>
        <mxCell id="1K2lFntmDClPy83llf3J-19" value="2" style="text;html=1;align=center;verticalAlign=middle;resizable=0;points=[];autosize=1;strokeColor=none;fillColor=none;" vertex="1" parent="1">
          <mxGeometry x="285" y="340" width="30" height="30" as="geometry" />
        </mxCell>
        <mxCell id="1K2lFntmDClPy83llf3J-20" value="读者" style="html=1;dashed=0;whiteSpace=wrap;" vertex="1" parent="1">
          <mxGeometry x="100" y="354" width="50" height="40" as="geometry" />
        </mxCell>
        <mxCell id="1K2lFntmDClPy83llf3J-21" value="" style="endArrow=classic;html=1;rounded=0;exitX=1;exitY=0.25;exitDx=0;exitDy=0;entryX=-0.015;entryY=0.329;entryDx=0;entryDy=0;entryPerimeter=0;" edge="1" parent="1" source="1K2lFntmDClPy83llf3J-20" target="1K2lFntmDClPy83llf3J-17">
          <mxGeometry width="50" height="50" relative="1" as="geometry">
            <mxPoint x="300" y="384" as="sourcePoint" />
            <mxPoint x="350" y="334" as="targetPoint" />
          </mxGeometry>
        </mxCell>
        <mxCell id="1K2lFntmDClPy83llf3J-22" value="借书请求" style="text;html=1;align=center;verticalAlign=middle;resizable=0;points=[];autosize=1;strokeColor=none;fillColor=none;" vertex="1" parent="1">
          <mxGeometry x="155" y="340" width="70" height="30" as="geometry" />
        </mxCell>
        <mxCell id="1K2lFntmDClPy83llf3J-23" value="" style="endArrow=classic;html=1;rounded=0;entryX=1.005;entryY=0.625;entryDx=0;entryDy=0;entryPerimeter=0;" edge="1" parent="1">
          <mxGeometry width="50" height="50" relative="1" as="geometry">
            <mxPoint x="239" y="381" as="sourcePoint" />
            <mxPoint x="150.25" y="381" as="targetPoint" />
          </mxGeometry>
        </mxCell>
        <mxCell id="1K2lFntmDClPy83llf3J-24" value="借书确认" style="text;html=1;align=center;verticalAlign=middle;resizable=0;points=[];autosize=1;strokeColor=none;fillColor=none;" vertex="1" parent="1">
          <mxGeometry x="158" y="374" width="70" height="30" as="geometry" />
        </mxCell>
        <mxCell id="1K2lFntmDClPy83llf3J-25" value="" style="html=1;dashed=0;whiteSpace=wrap;shape=mxgraph.dfd.dataStoreID;align=left;spacingLeft=3;points=[[0,0],[0.5,0],[1,0],[0,0.5],[1,0.5],[0,1],[0.5,1],[1,1]];" vertex="1" parent="1">
          <mxGeometry x="430" y="314" width="100" height="30" as="geometry" />
        </mxCell>
        <mxCell id="1K2lFntmDClPy83llf3J-26" value="图书" style="text;html=1;align=center;verticalAlign=middle;resizable=0;points=[];autosize=1;strokeColor=none;fillColor=none;" vertex="1" parent="1">
          <mxGeometry x="455" y="314" width="50" height="30" as="geometry" />
        </mxCell>
        <mxCell id="1K2lFntmDClPy83llf3J-28" value="" style="html=1;dashed=0;whiteSpace=wrap;shape=mxgraph.dfd.dataStoreID;align=left;spacingLeft=3;points=[[0,0],[0.5,0],[1,0],[0,0.5],[1,0.5],[0,1],[0.5,1],[1,1]];" vertex="1" parent="1">
          <mxGeometry x="430" y="390" width="100" height="30" as="geometry" />
        </mxCell>
        <mxCell id="1K2lFntmDClPy83llf3J-29" value="借书条目信息" style="text;html=1;align=center;verticalAlign=middle;resizable=0;points=[];autosize=1;strokeColor=none;fillColor=none;" vertex="1" parent="1">
          <mxGeometry x="453" y="390" width="100" height="30" as="geometry" />
        </mxCell>
        <mxCell id="1K2lFntmDClPy83llf3J-30" value="" style="endArrow=classic;html=1;rounded=0;entryX=0;entryY=0.5;entryDx=0;entryDy=0;exitX=1.004;exitY=0.567;exitDx=0;exitDy=0;exitPerimeter=0;" edge="1" parent="1" source="1K2lFntmDClPy83llf3J-17" target="1K2lFntmDClPy83llf3J-28">
          <mxGeometry width="50" height="50" relative="1" as="geometry">
            <mxPoint x="300" y="370" as="sourcePoint" />
            <mxPoint x="350" y="320" as="targetPoint" />
          </mxGeometry>
        </mxCell>
        <mxCell id="1K2lFntmDClPy83llf3J-31" value="管理员查询图书去向" style="rounded=1;whiteSpace=wrap;html=1;" vertex="1" parent="1">
          <mxGeometry x="240" y="474" width="120" height="60" as="geometry" />
        </mxCell>
        <mxCell id="1K2lFntmDClPy83llf3J-32" value="" style="endArrow=none;html=1;rounded=0;exitX=-0.012;exitY=0.337;exitDx=0;exitDy=0;exitPerimeter=0;entryX=1.008;entryY=0.346;entryDx=0;entryDy=0;entryPerimeter=0;" edge="1" parent="1" source="1K2lFntmDClPy83llf3J-31" target="1K2lFntmDClPy83llf3J-31">
          <mxGeometry width="50" height="50" relative="1" as="geometry">
            <mxPoint x="330" y="574" as="sourcePoint" />
            <mxPoint x="380" y="524" as="targetPoint" />
          </mxGeometry>
        </mxCell>
        <mxCell id="1K2lFntmDClPy83llf3J-33" value="3" style="text;html=1;align=center;verticalAlign=middle;resizable=0;points=[];autosize=1;strokeColor=none;fillColor=none;" vertex="1" parent="1">
          <mxGeometry x="285" y="470" width="30" height="30" as="geometry" />
        </mxCell>
        <mxCell id="1K2lFntmDClPy83llf3J-34" value="管理员" style="html=1;dashed=0;whiteSpace=wrap;" vertex="1" parent="1">
          <mxGeometry x="100" y="484" width="50" height="40" as="geometry" />
        </mxCell>
        <mxCell id="1K2lFntmDClPy83llf3J-35" value="" style="endArrow=classic;html=1;rounded=0;exitX=1;exitY=0.25;exitDx=0;exitDy=0;entryX=-0.015;entryY=0.329;entryDx=0;entryDy=0;entryPerimeter=0;" edge="1" parent="1" source="1K2lFntmDClPy83llf3J-34" target="1K2lFntmDClPy83llf3J-31">
          <mxGeometry width="50" height="50" relative="1" as="geometry">
            <mxPoint x="300" y="514" as="sourcePoint" />
            <mxPoint x="350" y="464" as="targetPoint" />
          </mxGeometry>
        </mxCell>
        <mxCell id="1K2lFntmDClPy83llf3J-36" value="图书去向查询" style="text;html=1;align=center;verticalAlign=middle;resizable=0;points=[];autosize=1;strokeColor=none;fillColor=none;" vertex="1" parent="1">
          <mxGeometry x="140" y="470" width="100" height="30" as="geometry" />
        </mxCell>
        <mxCell id="1K2lFntmDClPy83llf3J-37" value="" style="endArrow=classic;html=1;rounded=0;entryX=1.005;entryY=0.625;entryDx=0;entryDy=0;entryPerimeter=0;" edge="1" parent="1">
          <mxGeometry width="50" height="50" relative="1" as="geometry">
            <mxPoint x="239" y="511" as="sourcePoint" />
            <mxPoint x="150.25" y="511" as="targetPoint" />
          </mxGeometry>
        </mxCell>
        <mxCell id="1K2lFntmDClPy83llf3J-38" value="图书去向信息" style="text;html=1;align=center;verticalAlign=middle;resizable=0;points=[];autosize=1;strokeColor=none;fillColor=none;" vertex="1" parent="1">
          <mxGeometry x="143" y="504" width="100" height="30" as="geometry" />
        </mxCell>
        <mxCell id="1K2lFntmDClPy83llf3J-39" value="" style="html=1;dashed=0;whiteSpace=wrap;shape=mxgraph.dfd.dataStoreID;align=left;spacingLeft=3;points=[[0,0],[0.5,0],[1,0],[0,0.5],[1,0.5],[0,1],[0.5,1],[1,1]];" vertex="1" parent="1">
          <mxGeometry x="430" y="484" width="100" height="30" as="geometry" />
        </mxCell>
        <mxCell id="1K2lFntmDClPy83llf3J-40" value="图书" style="text;html=1;align=center;verticalAlign=middle;resizable=0;points=[];autosize=1;strokeColor=none;fillColor=none;" vertex="1" parent="1">
          <mxGeometry x="455" y="484" width="50" height="30" as="geometry" />
        </mxCell>
        <mxCell id="1K2lFntmDClPy83llf3J-41" value="" style="endArrow=classic;html=1;rounded=0;exitX=0;exitY=0.5;exitDx=0;exitDy=0;entryX=1.008;entryY=0.431;entryDx=0;entryDy=0;entryPerimeter=0;" edge="1" parent="1" source="1K2lFntmDClPy83llf3J-39" target="1K2lFntmDClPy83llf3J-31">
          <mxGeometry width="50" height="50" relative="1" as="geometry">
            <mxPoint x="300" y="514" as="sourcePoint" />
            <mxPoint x="350" y="464" as="targetPoint" />
          </mxGeometry>
        </mxCell>
        <mxCell id="1K2lFntmDClPy83llf3J-42" value="" style="endArrow=classic;startArrow=classic;html=1;rounded=0;entryX=0;entryY=0.5;entryDx=0;entryDy=0;exitX=1.001;exitY=0.364;exitDx=0;exitDy=0;exitPerimeter=0;" edge="1" parent="1" source="1K2lFntmDClPy83llf3J-17" target="1K2lFntmDClPy83llf3J-25">
          <mxGeometry width="50" height="50" relative="1" as="geometry">
            <mxPoint x="300" y="390" as="sourcePoint" />
            <mxPoint x="350" y="340" as="targetPoint" />
          </mxGeometry>
        </mxCell>
        <mxCell id="1K2lFntmDClPy83llf3J-43" value="注：这里将图书的“是否在馆状态更新”" style="text;html=1;align=center;verticalAlign=middle;resizable=0;points=[];autosize=1;strokeColor=none;fillColor=none;" vertex="1" parent="1">
          <mxGeometry x="453" y="284" width="220" height="30" as="geometry" />
        </mxCell>
        <mxCell id="1K2lFntmDClPy83llf3J-44" value="读者还书" style="rounded=1;whiteSpace=wrap;html=1;" vertex="1" parent="1">
          <mxGeometry x="240" y="584" width="120" height="60" as="geometry" />
        </mxCell>
        <mxCell id="1K2lFntmDClPy83llf3J-45" value="" style="endArrow=none;html=1;rounded=0;exitX=-0.012;exitY=0.337;exitDx=0;exitDy=0;exitPerimeter=0;entryX=1.008;entryY=0.346;entryDx=0;entryDy=0;entryPerimeter=0;" edge="1" parent="1" source="1K2lFntmDClPy83llf3J-44" target="1K2lFntmDClPy83llf3J-44">
          <mxGeometry width="50" height="50" relative="1" as="geometry">
            <mxPoint x="330" y="684" as="sourcePoint" />
            <mxPoint x="380" y="634" as="targetPoint" />
          </mxGeometry>
        </mxCell>
        <mxCell id="1K2lFntmDClPy83llf3J-46" value="4" style="text;html=1;align=center;verticalAlign=middle;resizable=0;points=[];autosize=1;strokeColor=none;fillColor=none;" vertex="1" parent="1">
          <mxGeometry x="285" y="580" width="30" height="30" as="geometry" />
        </mxCell>
        <mxCell id="1K2lFntmDClPy83llf3J-47" value="读者" style="html=1;dashed=0;whiteSpace=wrap;" vertex="1" parent="1">
          <mxGeometry x="100" y="594" width="50" height="40" as="geometry" />
        </mxCell>
        <mxCell id="1K2lFntmDClPy83llf3J-48" value="" style="endArrow=classic;html=1;rounded=0;exitX=1;exitY=0.25;exitDx=0;exitDy=0;entryX=-0.015;entryY=0.329;entryDx=0;entryDy=0;entryPerimeter=0;" edge="1" parent="1" source="1K2lFntmDClPy83llf3J-47" target="1K2lFntmDClPy83llf3J-44">
          <mxGeometry width="50" height="50" relative="1" as="geometry">
            <mxPoint x="300" y="624" as="sourcePoint" />
            <mxPoint x="350" y="574" as="targetPoint" />
          </mxGeometry>
        </mxCell>
        <mxCell id="1K2lFntmDClPy83llf3J-49" value="还书请求" style="text;html=1;align=center;verticalAlign=middle;resizable=0;points=[];autosize=1;strokeColor=none;fillColor=none;" vertex="1" parent="1">
          <mxGeometry x="155" y="580" width="70" height="30" as="geometry" />
        </mxCell>
        <mxCell id="1K2lFntmDClPy83llf3J-50" value="" style="endArrow=classic;html=1;rounded=0;entryX=1.005;entryY=0.625;entryDx=0;entryDy=0;entryPerimeter=0;" edge="1" parent="1">
          <mxGeometry width="50" height="50" relative="1" as="geometry">
            <mxPoint x="239" y="621" as="sourcePoint" />
            <mxPoint x="150.25" y="621" as="targetPoint" />
          </mxGeometry>
        </mxCell>
        <mxCell id="1K2lFntmDClPy83llf3J-51" value="还书确认" style="text;html=1;align=center;verticalAlign=middle;resizable=0;points=[];autosize=1;strokeColor=none;fillColor=none;" vertex="1" parent="1">
          <mxGeometry x="158" y="614" width="70" height="30" as="geometry" />
        </mxCell>
        <mxCell id="1K2lFntmDClPy83llf3J-52" value="" style="html=1;dashed=0;whiteSpace=wrap;shape=mxgraph.dfd.dataStoreID;align=left;spacingLeft=3;points=[[0,0],[0.5,0],[1,0],[0,0.5],[1,0.5],[0,1],[0.5,1],[1,1]];" vertex="1" parent="1">
          <mxGeometry x="430" y="550" width="100" height="30" as="geometry" />
        </mxCell>
        <mxCell id="1K2lFntmDClPy83llf3J-53" value="图书" style="text;html=1;align=center;verticalAlign=middle;resizable=0;points=[];autosize=1;strokeColor=none;fillColor=none;" vertex="1" parent="1">
          <mxGeometry x="455" y="551" width="50" height="30" as="geometry" />
        </mxCell>
        <mxCell id="1K2lFntmDClPy83llf3J-55" value="" style="endArrow=classic;html=1;rounded=0;entryX=0;entryY=0.5;entryDx=0;entryDy=0;exitX=1.001;exitY=0.421;exitDx=0;exitDy=0;exitPerimeter=0;" edge="1" parent="1" source="1K2lFntmDClPy83llf3J-44" target="1K2lFntmDClPy83llf3J-52">
          <mxGeometry width="50" height="50" relative="1" as="geometry">
            <mxPoint x="300" y="570" as="sourcePoint" />
            <mxPoint x="350" y="520" as="targetPoint" />
          </mxGeometry>
        </mxCell>
        <mxCell id="1K2lFntmDClPy83llf3J-56" value="" style="html=1;dashed=0;whiteSpace=wrap;shape=mxgraph.dfd.dataStoreID;align=left;spacingLeft=3;points=[[0,0],[0.5,0],[1,0],[0,0.5],[1,0.5],[0,1],[0.5,1],[1,1]];" vertex="1" parent="1">
          <mxGeometry x="430" y="650" width="100" height="30" as="geometry" />
        </mxCell>
        <mxCell id="1K2lFntmDClPy83llf3J-57" value="" style="endArrow=classic;html=1;rounded=0;entryX=0;entryY=0.5;entryDx=0;entryDy=0;exitX=1.001;exitY=0.58;exitDx=0;exitDy=0;exitPerimeter=0;" edge="1" parent="1" source="1K2lFntmDClPy83llf3J-44" target="1K2lFntmDClPy83llf3J-56">
          <mxGeometry width="50" height="50" relative="1" as="geometry">
            <mxPoint x="300" y="510" as="sourcePoint" />
            <mxPoint x="350" y="460" as="targetPoint" />
          </mxGeometry>
        </mxCell>
        <mxCell id="1K2lFntmDClPy83llf3J-60" value="还书条目信息" style="text;html=1;align=center;verticalAlign=middle;resizable=0;points=[];autosize=1;strokeColor=none;fillColor=none;" vertex="1" parent="1">
          <mxGeometry x="453" y="650" width="100" height="30" as="geometry" />
        </mxCell>
      </root>
    </mxGraphModel>
  </diagram>
</mxfile>
